<svg width="20" height="20" viewBox="0 0 20 20" fill="none" xmlns="http://www.w3.org/2000/svg">
<path d="M14.167 1.66602H5.83366C3.53247 1.66602 1.66699 3.5315 1.66699 5.83268V14.166C1.66699 16.4672 3.53247 18.3327 5.83366 18.3327H14.167C16.4682 18.3327 18.3337 16.4672 18.3337 14.166V5.83268C18.3337 3.5315 16.4682 1.66602 14.167 1.66602Z" stroke="#282828" stroke-width="1.66667" stroke-linecap="round" stroke-linejoin="round"/>
<path d="M13.3328 9.4733C13.4356 10.1668 13.3171 10.8751 12.9942 11.4975C12.6713 12.1198 12.1604 12.6245 11.5341 12.9397C10.9079 13.2549 10.1981 13.3646 9.50592 13.2532C8.8137 13.1419 8.17423 12.815 7.67846 12.3193C7.18269 11.8235 6.85587 11.184 6.74449 10.4918C6.6331 9.79959 6.74282 9.08988 7.05804 8.46361C7.37325 7.83734 7.87792 7.32642 8.50025 7.0035C9.12258 6.68058 9.83089 6.56212 10.5244 6.66496C11.2319 6.76987 11.8868 7.09952 12.3925 7.60522C12.8982 8.11092 13.2279 8.76586 13.3328 9.4733Z" stroke="#282828" stroke-width="1.66667" stroke-linecap="round" stroke-linejoin="round"/>
<path d="M14.583 5.41602H14.5918" stroke="#282828" stroke-width="1.66667" stroke-linecap="round" stroke-linejoin="round"/>
</svg>
