<svg width="21" height="20" viewBox="0 0 21 20" fill="none" xmlns="http://www.w3.org/2000/svg">
<path d="M14.4961 1.66602H6.16276C3.86157 1.66602 1.99609 3.5315 1.99609 5.83268V14.166C1.99609 16.4672 3.86157 18.3327 6.16276 18.3327H14.4961C16.7973 18.3327 18.6628 16.4672 18.6628 14.166V5.83268C18.6628 3.5315 16.7973 1.66602 14.4961 1.66602Z" stroke="white" stroke-width="1.66667" stroke-linecap="round" stroke-linejoin="round"/>
<path d="M13.6624 9.4733C13.7652 10.1668 13.6467 10.8751 13.3238 11.4975C13.0009 12.1198 12.49 12.6245 11.8637 12.9397C11.2374 13.2549 10.5277 13.3646 9.83551 13.2532C9.14329 13.1419 8.50382 12.815 8.00805 12.3193C7.51228 11.8235 7.18546 11.184 7.07408 10.4918C6.96269 9.79959 7.07241 9.08988 7.38763 8.46361C7.70284 7.83734 8.20751 7.32642 8.82984 7.0035C9.45217 6.68058 10.1605 6.56212 10.854 6.66496C11.5615 6.76987 12.2164 7.09952 12.7221 7.60522C13.2278 8.11092 13.5575 8.76586 13.6624 9.4733Z" stroke="white" stroke-width="1.66667" stroke-linecap="round" stroke-linejoin="round"/>
<path d="M14.9131 5.41602H14.9218" stroke="white" stroke-width="1.66667" stroke-linecap="round" stroke-linejoin="round"/>
</svg>
