<svg width="238" height="43" viewBox="0 0 238 43" fill="none" xmlns="http://www.w3.org/2000/svg">
<path d="M32.9472 22.9051H29.0527V7.2489L18.4171 19.4798H15.0857L4.45015 7.2489V22.9051H0.555664V0.476562H4.16862L16.7592 15.3038L29.3342 0.476562H32.9472V22.9051Z" fill="white"/>
<path d="M63.8966 22.9051H45.5503C44.5389 22.9051 43.6161 22.66 42.7819 22.1699C41.9477 21.6695 41.2804 21.0021 40.7799 20.168C40.2899 19.3338 40.0448 18.411 40.0448 17.3996C40.0448 16.3882 40.2899 15.4654 40.7799 14.6312C41.2804 13.7971 41.9477 13.1297 42.7819 12.6292C43.6161 12.1287 44.5389 11.8785 45.5503 11.8785H60.0021V10.987C60.0021 10.3301 59.7727 9.77745 59.3139 9.32909C58.8656 8.88073 58.3181 8.65655 57.6717 8.65655H41.4681V4.76206H57.6717C58.8186 4.76206 59.8613 5.04359 60.7998 5.60665C61.7382 6.15928 62.4889 6.91002 63.052 7.85888C63.6151 8.79731 63.8966 9.84001 63.8966 10.987V22.9051ZM60.0021 19.0106V15.773H45.5503C45.0915 15.773 44.7057 15.9294 44.3929 16.2422C44.0905 16.555 43.9393 16.9408 43.9393 17.3996C43.9393 17.8584 44.0905 18.2442 44.3929 18.557C44.7057 18.8594 45.0915 19.0106 45.5503 19.0106H60.0021Z" fill="white"/>
<path d="M95.5029 22.9051H90.1852L82.7403 16.2266L75.311 22.9051H69.9776L80.0814 13.8336L69.9776 4.76206H75.311L82.7403 11.4406L90.1852 4.76206H95.5029L85.3992 13.8336L95.5029 22.9051Z" fill="white"/>
<path d="M123.011 22.9051H106.808C105.661 22.9051 104.618 22.6235 103.68 22.0605C102.741 21.4974 101.991 20.7467 101.428 19.8082C100.864 18.8698 100.583 17.8271 100.583 16.6801V10.987C100.583 9.84001 100.864 8.79731 101.428 7.85888C101.991 6.91002 102.741 6.15928 103.68 5.60665C104.618 5.04359 105.661 4.76206 106.808 4.76206H123.011V8.65655H106.808C106.151 8.65655 105.598 8.88073 105.15 9.32909C104.702 9.77745 104.477 10.3301 104.477 10.987V16.6801C104.477 17.337 104.702 17.8897 105.15 18.338C105.598 18.7864 106.151 19.0106 106.808 19.0106H123.011V22.9051Z" fill="white"/>
<path d="M151.928 22.9051H136.037C134.89 22.9051 133.847 22.6235 132.909 22.0605C131.97 21.4974 131.22 20.7467 130.657 19.8082C130.093 18.8698 129.812 17.8271 129.812 16.6801V10.2675C129.812 9.24567 130.093 8.31767 130.657 7.48351C131.22 6.64935 131.976 5.98723 132.924 5.49717C133.873 5.0071 134.921 4.76206 136.068 4.76206H146.688C147.845 4.76206 148.893 5.0071 149.832 5.49717C150.781 5.98723 151.537 6.64935 152.1 7.48351C152.663 8.31767 152.944 9.24567 152.944 10.2675V15.773H133.706V16.6801C133.706 17.337 133.931 17.8897 134.379 18.338C134.827 18.7864 135.38 19.0106 136.037 19.0106H151.928V22.9051ZM149.05 11.8785V10.2675C149.05 9.88172 148.831 9.51678 148.393 9.17268C147.965 8.82859 147.397 8.65655 146.688 8.65655H136.068C135.359 8.65655 134.786 8.82859 134.348 9.17268C133.92 9.51678 133.706 9.88172 133.706 10.2675V11.8785H149.05Z" fill="white"/>
<path d="M164.046 22.9051H160.151V0.476562H164.046V22.9051Z" fill="white"/>
<path d="M175.914 22.9051H172.019V0.476562H175.914V22.9051Z" fill="white"/>
<path d="M201.092 22.9051H189.69C188.543 22.9051 187.5 22.6235 186.562 22.0605C185.624 21.4974 184.873 20.7467 184.31 19.8082C183.747 18.8698 183.465 17.8271 183.465 16.6801V10.987C183.465 9.84001 183.747 8.79731 184.31 7.85888C184.873 6.91002 185.624 6.15928 186.562 5.60665C187.5 5.04359 188.543 4.76206 189.69 4.76206H201.092C202.239 4.76206 203.282 5.04359 204.22 5.60665C205.159 6.15928 205.909 6.91002 206.472 7.85888C207.035 8.79731 207.317 9.84001 207.317 10.987V16.6801C207.317 17.8271 207.035 18.8698 206.472 19.8082C205.909 20.7467 205.159 21.4974 204.22 22.0605C203.282 22.6235 202.239 22.9051 201.092 22.9051ZM201.092 19.0106C201.738 19.0106 202.286 18.7864 202.734 18.338C203.193 17.8897 203.422 17.337 203.422 16.6801V10.987C203.422 10.3301 203.193 9.77745 202.734 9.32909C202.286 8.88073 201.738 8.65655 201.092 8.65655H189.69C189.033 8.65655 188.481 8.88073 188.032 9.32909C187.584 9.77745 187.36 10.3301 187.36 10.987V16.6801C187.36 17.337 187.584 17.8897 188.032 18.338C188.481 18.7864 189.033 19.0106 189.69 19.0106H201.092Z" fill="white"/>
<path d="M238 22.9051H234.106V10.987C234.106 10.3301 233.882 9.77745 233.433 9.32909C232.985 8.88073 232.432 8.65655 231.776 8.65655H221.093C220.426 8.65655 219.873 8.87552 219.435 9.31345C219.008 9.75138 218.783 10.304 218.763 10.9713V22.9051H214.868V4.76206H218.763V5.77869C219.138 5.36161 219.519 5.09051 219.904 4.96539C220.301 4.82984 220.697 4.76206 221.093 4.76206H231.776C232.923 4.76206 233.965 5.04359 234.904 5.60665C235.852 6.15928 236.603 6.91002 237.156 7.85888C237.719 8.79731 238 9.84001 238 10.987V22.9051Z" fill="white"/>
<path d="M1.59931 39.9058H0.489258V29.4052H1.59931V33.7705H7.83962V29.4052H8.94968V39.9058H7.83962V34.7755H1.59931V39.9058Z" fill="white"/>
<path d="M21.7114 39.1107C22.2115 39.1107 22.6865 38.9957 23.1365 38.7657C23.5865 38.5357 23.9516 38.2457 24.2316 37.8957V36.8906C23.4915 36.4106 22.7065 36.1706 21.8765 36.1706C21.2164 36.1706 20.6914 36.3006 20.3014 36.5606C19.9214 36.8206 19.7313 37.1756 19.7313 37.6257C19.7313 38.0957 19.9164 38.4607 20.2864 38.7207C20.6564 38.9807 21.1314 39.1107 21.7114 39.1107ZM21.4114 40.0858C20.6414 40.0858 19.9864 39.8758 19.4463 39.4557C18.9163 39.0157 18.6513 38.4257 18.6513 37.6857C18.6513 36.9556 18.9313 36.3706 19.4913 35.9306C20.0514 35.5005 20.7614 35.2855 21.6214 35.2855C22.5615 35.2855 23.4315 35.5205 24.2316 35.9906V35.2705C24.2316 34.0605 23.4365 33.4554 21.8464 33.4554C20.9964 33.4554 20.2064 33.7005 19.4763 34.1905V33.1404C20.1864 32.7004 21.0514 32.4804 22.0715 32.4804C23.0615 32.4804 23.8466 32.7154 24.4266 33.1854C25.0166 33.6455 25.3116 34.3055 25.3116 35.1655V38.1507C25.3116 38.4307 25.3716 38.6507 25.4916 38.8107C25.6216 38.9707 25.7916 39.0507 26.0017 39.0507C26.1617 39.0507 26.3017 39.0207 26.4217 38.9607V39.8008C26.2617 39.9108 26.0217 39.9658 25.7016 39.9658C25.3416 39.9658 25.0366 39.8708 24.7866 39.6808C24.5466 39.4807 24.3966 39.1907 24.3366 38.8107C23.6065 39.6608 22.6315 40.0858 21.4114 40.0858Z" fill="white"/>
<path d="M35.8384 42.0509H34.8033V38.9607H35.7184C36.5184 37.9007 36.9285 36.1406 36.9485 33.6805L36.9635 32.6604H42.3487V38.9607H43.6988V42.0509H42.6487V39.9058H35.8384V42.0509ZM36.9184 38.9607H41.2687V33.6055H37.9685V34.0405C37.9685 36.2006 37.6185 37.8407 36.9184 38.9607Z" fill="white"/>
<path d="M56.516 40.0858C55.3859 40.0858 54.4359 39.7308 53.6658 39.0207C52.9058 38.3207 52.5258 37.4106 52.5258 36.2906C52.5258 35.2105 52.8658 34.3055 53.5458 33.5754C54.2359 32.8454 55.1209 32.4804 56.201 32.4804C56.781 32.4804 57.296 32.6004 57.746 32.8404C58.1961 33.0704 58.5511 33.3754 58.8111 33.7555C59.0711 34.1355 59.2661 34.5405 59.3961 34.9705C59.5261 35.3905 59.5911 35.8156 59.5911 36.2456V36.5456H53.6358C53.6958 37.3256 54.0059 37.9507 54.5659 38.4207C55.1359 38.8807 55.8559 39.1107 56.726 39.1107C57.566 39.1107 58.3411 38.8857 59.0511 38.4357V39.3957C58.4611 39.8558 57.616 40.0858 56.516 40.0858ZM53.6508 35.6606H58.4961C58.4661 35.1005 58.2561 34.5955 57.866 34.1455C57.496 33.6855 56.926 33.4554 56.156 33.4554C55.4359 33.4554 54.8459 33.6755 54.3859 34.1155C53.9359 34.5655 53.6908 35.0805 53.6508 35.6606Z" fill="white"/>
<path d="M68.2029 32.6604H69.5679L72.6281 35.7506V32.6604H73.7081V35.7506L76.7683 32.6604H78.1333L74.7432 36.0206L78.4934 39.9058H77.0683L73.7081 36.3956V39.9058H72.6281V36.3956L69.2679 39.9058H67.8578L71.608 36.0206L68.2029 32.6604Z" fill="white"/>
<path d="M88.8675 39.9058H87.7875V32.6604H88.8675V35.7056H93.3228V32.6604H94.4028V39.9058H93.3228V36.6806H88.8675V39.9058Z" fill="white"/>
<path d="M106.978 39.1107C107.478 39.1107 107.953 38.9957 108.403 38.7657C108.853 38.5357 109.218 38.2457 109.498 37.8957V36.8906C108.758 36.4106 107.973 36.1706 107.143 36.1706C106.483 36.1706 105.958 36.3006 105.568 36.5606C105.188 36.8206 104.998 37.1756 104.998 37.6257C104.998 38.0957 105.183 38.4607 105.553 38.7207C105.923 38.9807 106.398 39.1107 106.978 39.1107ZM106.678 40.0858C105.908 40.0858 105.253 39.8758 104.713 39.4557C104.183 39.0157 103.918 38.4257 103.918 37.6857C103.918 36.9556 104.198 36.3706 104.758 35.9306C105.318 35.5005 106.028 35.2855 106.888 35.2855C107.828 35.2855 108.698 35.5205 109.498 35.9906V35.2705C109.498 34.0605 108.703 33.4554 107.113 33.4554C106.263 33.4554 105.473 33.7005 104.743 34.1905V33.1404C105.453 32.7004 106.318 32.4804 107.338 32.4804C108.328 32.4804 109.113 32.7154 109.693 33.1854C110.284 33.6455 110.579 34.3055 110.579 35.1655V38.1507C110.579 38.4307 110.639 38.6507 110.759 38.8107C110.889 38.9707 111.059 39.0507 111.269 39.0507C111.429 39.0507 111.569 39.0207 111.689 38.9607V39.8008C111.529 39.9108 111.289 39.9658 110.969 39.9658C110.609 39.9658 110.304 39.8708 110.054 39.6808C109.814 39.4807 109.663 39.1907 109.603 38.8107C108.873 39.6608 107.898 40.0858 106.678 40.0858Z" fill="white"/>
<path d="M121.675 39.9058H120.445L122.605 37.0106C122.015 36.9106 121.56 36.6756 121.24 36.3056C120.93 35.9256 120.775 35.4455 120.775 34.8655C120.775 34.1955 121 33.6605 121.45 33.2604C121.91 32.8604 122.55 32.6604 123.37 32.6604H127.106V39.9058H126.026V37.2056H123.7L121.675 39.9058ZM123.535 36.2606H126.026V33.6055H123.535C123.005 33.6055 122.595 33.7205 122.305 33.9505C122.025 34.1805 121.885 34.5105 121.885 34.9405C121.885 35.3705 122.025 35.7006 122.305 35.9306C122.595 36.1506 123.005 36.2606 123.535 36.2606Z" fill="white"/>
<path d="M149.844 38.7507V42.9059H148.764V32.6604H149.844V33.8155C150.524 32.9254 151.459 32.4804 152.65 32.4804C153.72 32.4804 154.595 32.8504 155.275 33.5905C155.955 34.3305 156.295 35.2255 156.295 36.2756C156.295 37.3356 155.955 38.2357 155.275 38.9757C154.595 39.7158 153.72 40.0858 152.65 40.0858C151.459 40.0858 150.524 39.6408 149.844 38.7507ZM149.844 35.0905V37.4756C150.054 37.9557 150.394 38.3507 150.864 38.6607C151.334 38.9607 151.844 39.1107 152.395 39.1107C153.205 39.1107 153.87 38.8407 154.39 38.3007C154.92 37.7407 155.185 37.0656 155.185 36.2756C155.185 35.4855 154.92 34.8155 154.39 34.2655C153.87 33.7255 153.205 33.4554 152.395 33.4554C151.854 33.4554 151.349 33.6105 150.879 33.9205C150.409 34.2205 150.064 34.6105 149.844 35.0905Z" fill="white"/>
<path d="M168.321 39.1107C168.821 39.1107 169.296 38.9957 169.747 38.7657C170.197 38.5357 170.562 38.2457 170.842 37.8957V36.8906C170.102 36.4106 169.316 36.1706 168.486 36.1706C167.826 36.1706 167.301 36.3006 166.911 36.5606C166.531 36.8206 166.341 37.1756 166.341 37.6257C166.341 38.0957 166.526 38.4607 166.896 38.7207C167.266 38.9807 167.741 39.1107 168.321 39.1107ZM168.021 40.0858C167.251 40.0858 166.596 39.8758 166.056 39.4557C165.526 39.0157 165.261 38.4257 165.261 37.6857C165.261 36.9556 165.541 36.3706 166.101 35.9306C166.661 35.5005 167.371 35.2855 168.231 35.2855C169.171 35.2855 170.042 35.5205 170.842 35.9906V35.2705C170.842 34.0605 170.047 33.4554 168.456 33.4554C167.606 33.4554 166.816 33.7005 166.086 34.1905V33.1404C166.796 32.7004 167.661 32.4804 168.681 32.4804C169.672 32.4804 170.457 32.7154 171.037 33.1854C171.627 33.6455 171.922 34.3055 171.922 35.1655V38.1507C171.922 38.4307 171.982 38.6507 172.102 38.8107C172.232 38.9707 172.402 39.0507 172.612 39.0507C172.772 39.0507 172.912 39.0207 173.032 38.9607V39.8008C172.872 39.9108 172.632 39.9658 172.312 39.9658C171.952 39.9658 171.647 39.8708 171.397 39.6808C171.157 39.4807 171.007 39.1907 170.947 38.8107C170.217 39.6608 169.241 40.0858 168.021 40.0858Z" fill="white"/>
<path d="M185.899 40.0858C184.659 40.0858 183.693 39.6558 183.003 38.7957C182.313 37.9357 181.968 36.7656 181.968 35.2855C181.968 33.3854 182.453 31.9904 183.423 31.1003C183.753 30.7703 184.328 30.4403 185.149 30.1103C185.509 29.9803 185.869 29.8703 186.229 29.7803C186.599 29.6803 186.994 29.5853 187.414 29.4952C187.544 29.4652 187.764 29.4202 188.074 29.3602C188.394 29.3002 188.619 29.2602 188.749 29.2402V30.2453C187.719 30.4453 186.924 30.6103 186.364 30.7403C185.254 31.0003 184.429 31.4153 183.888 31.9854C183.328 32.5754 183.028 33.4704 182.988 34.6705C183.288 34.1505 183.718 33.7405 184.278 33.4404C184.849 33.1404 185.489 32.9904 186.199 32.9904C187.149 32.9904 187.944 33.3104 188.584 33.9505C189.224 34.5805 189.544 35.3905 189.544 36.3806C189.544 37.4706 189.194 38.3607 188.494 39.0507C187.794 39.7408 186.929 40.0858 185.899 40.0858ZM185.899 39.1107C186.609 39.1107 187.209 38.8657 187.699 38.3757C188.199 37.8757 188.449 37.2356 188.449 36.4556C188.449 35.7056 188.209 35.1055 187.729 34.6555C187.259 34.1955 186.669 33.9655 185.959 33.9655C185.309 33.9655 184.724 34.1605 184.203 34.5505C183.683 34.9205 183.308 35.3705 183.078 35.9006C183.128 36.9206 183.393 37.7107 183.873 38.2707C184.363 38.8307 185.039 39.1107 185.899 39.1107Z" fill="white"/>
<path d="M199.703 33.6055C200.434 32.8554 201.374 32.4804 202.524 32.4804C203.674 32.4804 204.614 32.8554 205.344 33.6055C206.074 34.3355 206.439 35.2305 206.439 36.2906C206.439 37.3506 206.074 38.2457 205.344 38.9757C204.604 39.7158 203.664 40.0858 202.524 40.0858C201.384 40.0858 200.444 39.7158 199.703 38.9757C198.973 38.2457 198.608 37.3506 198.608 36.2906C198.608 35.2305 198.973 34.3355 199.703 33.6055ZM205.329 36.2906C205.329 35.4905 205.064 34.8155 204.534 34.2655C204.004 33.7255 203.334 33.4554 202.524 33.4554C201.714 33.4554 201.044 33.7255 200.514 34.2655C199.983 34.8155 199.718 35.4905 199.718 36.2906C199.718 37.0806 199.983 37.7507 200.514 38.3007C201.044 38.8407 201.714 39.1107 202.524 39.1107C203.334 39.1107 204.004 38.8407 204.534 38.3007C205.064 37.7507 205.329 37.0806 205.329 36.2906Z" fill="white"/>
<path d="M218.597 39.9058H217.517V33.6055H214.892V32.6604H221.222V33.6055H218.597V39.9058Z" fill="white"/>
<path d="M232.902 39.1107C233.402 39.1107 233.877 38.9957 234.327 38.7657C234.777 38.5357 235.142 38.2457 235.422 37.8957V36.8906C234.682 36.4106 233.897 36.1706 233.067 36.1706C232.407 36.1706 231.882 36.3006 231.492 36.5606C231.112 36.8206 230.922 37.1756 230.922 37.6257C230.922 38.0957 231.107 38.4607 231.477 38.7207C231.847 38.9807 232.322 39.1107 232.902 39.1107ZM232.602 40.0858C231.832 40.0858 231.177 39.8758 230.637 39.4557C230.107 39.0157 229.842 38.4257 229.842 37.6857C229.842 36.9556 230.122 36.3706 230.682 35.9306C231.242 35.5005 231.952 35.2855 232.812 35.2855C233.752 35.2855 234.622 35.5205 235.422 35.9906V35.2705C235.422 34.0605 234.627 33.4554 233.037 33.4554C232.187 33.4554 231.397 33.7005 230.667 34.1905V33.1404C231.377 32.7004 232.242 32.4804 233.262 32.4804C234.252 32.4804 235.037 32.7154 235.617 33.1854C236.207 33.6455 236.502 34.3055 236.502 35.1655V38.1507C236.502 38.4307 236.562 38.6507 236.682 38.8107C236.812 38.9707 236.982 39.0507 237.192 39.0507C237.352 39.0507 237.492 39.0207 237.612 38.9607V39.8008C237.452 39.9108 237.212 39.9658 236.892 39.9658C236.532 39.9658 236.227 39.8708 235.977 39.6808C235.737 39.4807 235.587 39.1907 235.527 38.8107C234.797 39.6608 233.822 40.0858 232.602 40.0858Z" fill="white"/>
</svg>
