<svg width="73" height="50" viewBox="0 0 73 50" fill="none" xmlns="http://www.w3.org/2000/svg">
<path d="M29.1327 16.1822C31.1664 13.0546 31.4431 8.93314 29.4998 5.44829C26.7048 0.436204 20.3759 -1.36109 15.3638 1.43393C10.3517 4.22894 8.55438 10.5578 11.3494 15.5699C13.3652 19.1847 17.219 21.1273 21.0914 20.881C21.0914 20.881 24.4354 20.7782 26.6973 24.8634C28.9073 28.8549 27.3009 32.1533 27.3009 32.1533C26.1525 34.6416 26.1686 37.6257 27.6055 40.2023C29.9929 44.4836 35.3991 46.0189 39.6804 43.6314C43.9617 41.2439 45.4969 35.8378 43.1094 31.5565C41.6726 28.9798 39.1423 27.3978 36.4219 27.0669C36.4219 27.0669 32.3911 26.9633 30.1308 22.9487C28.1486 19.4278 28.8827 16.8471 29.1327 16.1822Z" fill="#29B7B8"/>
<path d="M55.6423 15.9767C57.6238 12.8602 57.877 8.78379 55.9521 5.33196C53.1571 0.319877 46.8282 -1.47742 41.8161 1.3176C36.804 4.11261 35.0067 10.4415 37.8017 15.4536C39.5875 18.6559 42.8159 20.5459 46.2217 20.7643C46.821 20.9699 50.6178 22.4125 52.9761 26.6718C55.4834 31.2001 53.6607 34.9422 53.6607 34.9422C52.3573 37.7653 52.3753 41.1513 54.0057 44.075C56.7142 48.932 62.8474 50.6737 67.7045 47.9652C72.5616 45.2566 74.3032 39.1234 71.5947 34.2664C69.9643 31.3427 67.0931 29.5479 64.0063 29.1729C64.0063 29.1729 59.4356 29.0542 56.8714 24.4995C54.5372 20.3535 55.4196 16.7257 55.6423 15.9767Z" fill="#29B7B8"/>
<path d="M18.8659 34.5029C21.5744 39.36 19.8327 45.4931 14.9757 48.2017C10.1186 50.9103 3.98542 49.1686 1.27685 44.3115C-1.43172 39.4544 0.309983 33.3213 5.16706 30.6127C10.0241 27.9041 16.1573 29.6458 18.8659 34.5029Z" fill="#29B7B8"/>
</svg>
